<?xml version="1.0" encoding="UTF-8" standalone="no"?>
<svg
   xmlns:osb="http://www.openswatchbook.org/uri/2009/osb"
   xmlns:dc="http://purl.org/dc/elements/1.1/"
   xmlns:cc="http://creativecommons.org/ns#"
   xmlns:rdf="http://www.w3.org/1999/02/22-rdf-syntax-ns#"
   xmlns:svg="http://www.w3.org/2000/svg"
   xmlns="http://www.w3.org/2000/svg"
   xmlns:xlink="http://www.w3.org/1999/xlink"
   xmlns:sodipodi="http://sodipodi.sourceforge.net/DTD/sodipodi-0.dtd"
   xmlns:inkscape="http://www.inkscape.org/namespaces/inkscape"
   viewBox="0 0 368 160"
   height="160"
   width="368"
   id="svg64"
   version="1.1"
   sodipodi:docname="nictc2.svg"
   inkscape:version="0.92.1 r15371">
  <sodipodi:namedview
     pagecolor="#ffffff"
     bordercolor="#666666"
     borderopacity="1"
     objecttolerance="10"
     gridtolerance="10"
     guidetolerance="10"
     inkscape:pageopacity="0"
     inkscape:pageshadow="2"
     inkscape:window-width="1215"
     inkscape:window-height="1000"
     id="namedview4630"
     showgrid="false"
     inkscape:snap-text-baseline="false"
     inkscape:zoom="2.2024932"
     inkscape:cx="187.69588"
     inkscape:cy="82.794494"
     inkscape:window-x="65"
     inkscape:window-y="24"
     inkscape:window-maximized="1"
     inkscape:current-layer="svg64" />
  <metadata
     id="metadata70">
    <rdf:RDF>
      <cc:Work
         rdf:about="">
        <dc:format>image/svg+xml</dc:format>
        <dc:type
           rdf:resource="http://purl.org/dc/dcmitype/StillImage" />
        <dc:title></dc:title>
      </cc:Work>
    </rdf:RDF>
  </metadata>
  <defs
     id="defs68">
    <linearGradient
       inkscape:collect="always"
       id="linearGradient9937">
      <stop
         style="stop-color:#160901;stop-opacity:1;"
         offset="0"
         id="stop9933" />
      <stop
         style="stop-color:#160901;stop-opacity:0;"
         offset="1"
         id="stop9935" />
    </linearGradient>
    <linearGradient
       inkscape:collect="always"
       id="linearGradient9127">
      <stop
         style="stop-color:#8b1c15;stop-opacity:1;"
         offset="0"
         id="stop9123" />
      <stop
         style="stop-color:#8b1c15;stop-opacity:0;"
         offset="1"
         id="stop9125" />
    </linearGradient>
    <linearGradient
       id="linearGradient8425"
       osb:paint="solid">
      <stop
         style="stop-color:#a05a2c;stop-opacity:1;"
         offset="0"
         id="stop8423" />
    </linearGradient>
    <linearGradient
       id="linearGradient7645"
       osb:paint="solid">
      <stop
         style="stop-color:#550000;stop-opacity:1;"
         offset="0"
         id="stop7643" />
    </linearGradient>
    <linearGradient
       id="linearGradient7373"
       osb:paint="solid">
      <stop
         style="stop-color:#22e6e9;stop-opacity:1;"
         offset="0"
         id="stop7371" />
    </linearGradient>
    <linearGradient
       id="linearGradient6717"
       osb:paint="solid">
      <stop
         style="stop-color:#cccccc;stop-opacity:1;"
         offset="0"
         id="stop6715" />
    </linearGradient>
    <radialGradient
       inkscape:collect="always"
       xlink:href="#linearGradient9127"
       id="radialGradient9129"
       cx="126.63502"
       cy="19.29981"
       fx="126.63502"
       fy="19.29981"
       r="12.643734"
       gradientTransform="matrix(1,0,0,1.0137218,0,-0.26482763)"
       gradientUnits="userSpaceOnUse" />
    <radialGradient
       inkscape:collect="always"
       xlink:href="#linearGradient9127"
       id="radialGradient9131"
       cx="126.7087"
       cy="85.276127"
       fx="126.7087"
       fy="85.276127"
       r="20.570056"
       gradientTransform="matrix(1,0,0,1.9121645,0,-77.785854)"
       gradientUnits="userSpaceOnUse" />
    <radialGradient
       inkscape:collect="always"
       xlink:href="#linearGradient9127"
       id="radialGradient9133"
       cx="57.945423"
       cy="84.333065"
       fx="57.945423"
       fy="84.333065"
       r="44.000004"
       gradientTransform="matrix(1,0,0,0.91537246,0,7.1368995)"
       gradientUnits="userSpaceOnUse" />
    <radialGradient
       inkscape:collect="always"
       xlink:href="#linearGradient9127"
       id="radialGradient9135"
       cx="322.70589"
       cy="84.884986"
       fx="322.70589"
       fy="84.884986"
       r="32.572864"
       gradientTransform="matrix(1,0,0,1.2528343,0,-21.461834)"
       gradientUnits="userSpaceOnUse" />
    <radialGradient
       inkscape:collect="always"
       xlink:href="#linearGradient9127"
       id="radialGradient9137"
       cx="256.61209"
       cy="77.048667"
       fx="256.61209"
       fy="77.048667"
       r="26.666667"
       gradientTransform="matrix(1,0,0,1.8165195,0,-62.911736)"
       gradientUnits="userSpaceOnUse" />
    <radialGradient
       inkscape:collect="always"
       xlink:href="#linearGradient9127"
       id="radialGradient9139"
       cx="189.37246"
       cy="84.884986"
       fx="189.37246"
       fy="84.884986"
       r="32.572967"
       gradientTransform="matrix(1,0,0,1.2528303,0,-21.461498)"
       gradientUnits="userSpaceOnUse" />
    <radialGradient
       inkscape:collect="always"
       xlink:href="#linearGradient9127"
       id="radialGradient9141"
       cx="10.165603"
       cy="62.157145"
       fx="10.165603"
       fy="62.157145"
       r="0.93607492"
       gradientTransform="matrix(1,0,0,43.778455,0,-2658.9866)"
       gradientUnits="userSpaceOnUse" />
    <radialGradient
       inkscape:collect="always"
       xlink:href="#linearGradient9127"
       id="radialGradient9143"
       cx="10.123168"
       cy="142.60945"
       fx="10.123168"
       fy="142.60945"
       r="1.0068497"
       gradientTransform="matrix(1,0,0,10.054759,0,-1291.2942)"
       gradientUnits="userSpaceOnUse" />
    <radialGradient
       inkscape:collect="always"
       xlink:href="#linearGradient9127"
       id="radialGradient9145"
       cx="212.11914"
       cy="75.506288"
       fx="212.11914"
       fy="75.506288"
       r="102.29394"
       gradientTransform="matrix(1,0,0,0.48287406,0,39.04626)"
       gradientUnits="userSpaceOnUse" />
    <radialGradient
       inkscape:collect="always"
       xlink:href="#linearGradient9127"
       id="radialGradient9147"
       cx="164.56128"
       cy="80.604957"
       fx="164.56128"
       fy="80.604957"
       r="152.25723"
       gradientTransform="matrix(1,0,0,0.26035615,0,59.618961)"
       gradientUnits="userSpaceOnUse" />
    <radialGradient
       inkscape:collect="always"
       xlink:href="#linearGradient9127"
       id="radialGradient9149"
       cx="186.88339"
       cy="72.073432"
       fx="186.88339"
       fy="72.073432"
       r="159.81565"
       gradientTransform="matrix(1,0,0,0.38382496,0,44.40985)"
       gradientUnits="userSpaceOnUse" />
    <radialGradient
       inkscape:collect="always"
       xlink:href="#linearGradient9127"
       id="radialGradient9151"
       cx="176.17183"
       cy="60.896245"
       fx="176.17183"
       fy="60.896245"
       r="168.89055"
       gradientTransform="matrix(1,0,0,0.35068898,0,39.540603)"
       gradientUnits="userSpaceOnUse" />
    <radialGradient
       inkscape:collect="always"
       xlink:href="#linearGradient9127"
       id="radialGradient9153"
       cx="184.88707"
       cy="86.036049"
       fx="184.88707"
       fy="86.036049"
       r="161.36315"
       gradientTransform="matrix(1,0,0,0.28538701,0,61.482478)"
       gradientUnits="userSpaceOnUse" />
    <linearGradient
       inkscape:collect="always"
       xlink:href="#linearGradient9937"
       id="linearGradient9939"
       x1="113.99129"
       y1="19.29981"
       x2="139.27876"
       y2="19.29981"
       gradientUnits="userSpaceOnUse" />
    <linearGradient
       inkscape:collect="always"
       xlink:href="#linearGradient9937"
       id="linearGradient9941"
       x1="106.13865"
       y1="85.276127"
       x2="147.27876"
       y2="85.276127"
       gradientUnits="userSpaceOnUse" />
    <linearGradient
       inkscape:collect="always"
       xlink:href="#linearGradient9937"
       id="linearGradient9943"
       x1="13.945419"
       y1="84.333065"
       x2="101.94543"
       y2="84.333065"
       gradientUnits="userSpaceOnUse" />
    <linearGradient
       inkscape:collect="always"
       xlink:href="#linearGradient9937"
       id="linearGradient9945"
       x1="290.13303"
       y1="84.884986"
       x2="355.27876"
       y2="84.884986"
       gradientUnits="userSpaceOnUse" />
    <linearGradient
       inkscape:collect="always"
       xlink:href="#linearGradient9937"
       id="linearGradient9947"
       x1="229.94542"
       y1="77.048667"
       x2="283.27876"
       y2="77.048667"
       gradientUnits="userSpaceOnUse" />
    <linearGradient
       inkscape:collect="always"
       xlink:href="#linearGradient9937"
       id="linearGradient9949"
       x1="156.79949"
       y1="84.884986"
       x2="221.94543"
       y2="84.884986"
       gradientUnits="userSpaceOnUse" />
    <linearGradient
       inkscape:collect="always"
       xlink:href="#linearGradient9937"
       id="linearGradient9951"
       x1="9.2295282"
       y1="62.157145"
       x2="11.101678"
       y2="62.157145"
       gradientUnits="userSpaceOnUse" />
    <linearGradient
       inkscape:collect="always"
       xlink:href="#linearGradient9937"
       id="linearGradient9953"
       x1="9.1163185"
       y1="142.60945"
       x2="11.130018"
       y2="142.60945"
       gradientUnits="userSpaceOnUse" />
    <linearGradient
       inkscape:collect="always"
       xlink:href="#linearGradient9937"
       id="linearGradient9955"
       x1="109.8252"
       y1="75.506288"
       x2="314.41307"
       y2="75.506288"
       gradientUnits="userSpaceOnUse" />
    <linearGradient
       inkscape:collect="always"
       xlink:href="#linearGradient9937"
       id="linearGradient9957"
       x1="12.304049"
       y1="80.604957"
       x2="316.81851"
       y2="80.604957"
       gradientUnits="userSpaceOnUse" />
    <linearGradient
       inkscape:collect="always"
       xlink:href="#linearGradient9937"
       id="linearGradient9959"
       x1="27.06774"
       y1="72.073432"
       x2="346.69904"
       y2="72.073432"
       gradientUnits="userSpaceOnUse" />
    <linearGradient
       inkscape:collect="always"
       xlink:href="#linearGradient9937"
       id="linearGradient9961"
       x1="7.2812791"
       y1="60.896245"
       x2="345.06239"
       y2="60.896245"
       gradientUnits="userSpaceOnUse" />
    <linearGradient
       inkscape:collect="always"
       xlink:href="#linearGradient9937"
       id="linearGradient9963"
       x1="23.523917"
       y1="86.036049"
       x2="346.25022"
       y2="86.036049"
       gradientUnits="userSpaceOnUse" />
  </defs>
  <path
     style="fill:url(#radialGradient9153);stroke-width:1.33333337;stroke:url(#linearGradient9963);stroke-opacity:1;fill-opacity:1;fill-rule:evenodd;opacity:0.877"
     d="m 92.161731,115.24169 c -60.586558,28.12968 -30.293279,14.06484 0,0 z m 181.777839,-3.56557 c 0,-1.83333 0.30264,-2.58333 0.67252,-1.66667 0.36988,0.91667 0.36988,2.41667 0,3.33334 -0.36988,0.91666 -0.67252,0.16666 -0.67252,-1.66667 z m -235.654955,0 c -24.668481,30.50673 -12.334241,15.25336 0,0 z m 47.735931,0.001 c -56.492435,30.50587 -28.246218,15.25293 0,0 z M 130.72503,57.92945 c -86.295422,66.33784 -43.147708,33.168922 0,0 z m 41.77596,32.968606 c 0.64911,-3.074175 1.12819,0.489074 0.70034,1.749997 -0.73209,-0.54667 -0.73005,-0.81543 -0.70034,-1.749997 z m 133.33333,0 c 0.064,-1.553258 0.37992,-1.8692 0.80555,-0.805556 0.38516,0.9625 0.3378,2.112503 -0.1052,2.555553 -0.44307,0.44306 -0.75819,-0.34444 -0.7003,-1.749997 z m -93.79763,-44.92883 c 0.27963,3.09454 0.28296,8.49454 0.008,12 -0.66087,4.503565 -0.7231,-19.399831 -0.008,-12 z M 344.869,52.34279 c -0.004,-6.6 0.2214,-9.468104 0.50103,-6.373564 0.27962,3.09454 0.28296,8.49454 0.008,12 -0.27618,3.50546 -0.50498,0.973564 -0.50903,-5.626436 z m -72.74237,-6.495763 c -180.563156,74.392793 -90.28158,37.196396 0,0 z M 75.729059,40.34279 c -49.631444,78.06228 -24.815722,39.031142 0,0 z"
     id="path88" />
  <path
     style="fill:url(#radialGradient9151);stroke-width:1.33333337;stroke:url(#linearGradient9961);stroke-opacity:1;fill-opacity:1;fill-rule:evenodd;opacity:0.877"
     d="m 96.894774,117.72011 c -0.412827,-1.07581 -0.441364,-2.72581 -0.06341,-3.66667 0.377946,-0.94086 0.734545,-0.37628 0.79244,1.25462 0.103373,2.91211 0.469782,2.97254 20.438586,3.37075 l 20.33333,0.40548 -20.37518,0.29591 c -16.8695,0.24501 -20.504318,-0.0406 -21.125766,-1.66009 z m 137.374266,-5.04399 -2.53999,-3 3,2.53998 c 2.81926,2.38696 3.60699,3.46002 2.53999,3.46002 -0.25301,0 -1.60301,-1.35 -3,-3 z m -3.97561,-36.33333 c 0.001,-15.4 0.19517,-21.51739 0.4313,-13.594199 0.23615,7.923191 0.23526,20.523191 -0.001,28 -0.23787,7.476814 -0.43107,0.994202 -0.42997,-14.405801 z m -83.02052,10 c 0,-1.833334 0.30264,-2.583334 0.67252,-1.666667 0.36988,0.916667 0.36988,2.416667 0,3.333333 -0.36988,0.916667 -0.67252,0.166667 -0.67252,-1.666666 z m 133.33333,0 c 0,-1.833334 0.30264,-2.583334 0.67252,-1.666667 0.36988,0.916667 0.36988,2.416667 0,3.333333 -0.36988,0.916667 -0.67252,0.166667 -0.67252,-1.666666 z M 147.27291,71.676123 c 0,-1.833333 0.30264,-2.583333 0.67252,-1.666667 0.36988,0.916667 0.36988,2.416667 0,3.333334 -0.36988,0.916666 -0.67252,0.166666 -0.67252,-1.666667 z m 133.33333,0 c 0,-1.833333 0.30264,-2.583333 0.67252,-1.666667 0.36988,0.916667 0.36988,2.416667 0,3.333334 -0.36988,0.916666 -0.67252,0.166666 -0.67252,-1.666667 z m -75.42481,-7.807391 c -0.38776,-0.627398 0.77684,-0.857452 2.58797,-0.51123 6.93469,1.081354 -0.93179,2.638548 -2.58797,0.51123 z m 133.33333,0 c -0.38776,-0.627398 0.77684,-0.857452 2.58797,-0.51123 1.81115,0.346221 3.29299,0.859548 3.29299,1.140724 0,1.031666 -5.19819,0.475257 -5.88096,-0.629494 z M 157.72905,48.34279 c 1.72234,-1.833334 3.43151,-3.333334 3.79818,-3.333334 0.36666,0 -0.74251,1.5 -2.46484,3.333334 -1.72234,1.833333 -3.43151,3.333333 -3.79818,3.333333 -0.36666,0 0.74251,-1.5 2.46484,-3.333333 z m 133.33334,0 c 1.72233,-1.833334 3.4315,-3.333334 3.79817,-3.333334 0.36667,0 -0.74251,1.5 -2.46484,3.333334 -1.72233,1.833333 -3.43151,3.333333 -3.79817,3.333333 -0.36667,0 0.7425,-1.5 2.46484,-3.333333 z M 189.47905,46.765304 c 0.9625,-0.385161 2.1125,-0.337792 2.55556,0.105267 0.44306,0.443056 -0.34445,0.758188 -1.75,0.700293 -1.55326,-0.06397 -1.8692,-0.379921 -0.80556,-0.805556 z m 133.33334,0 c 0.96249,-0.385161 2.11249,-0.337792 2.55556,0.105267 0.44305,0.443056 -0.34446,0.758188 -1.75,0.700293 -1.55327,-0.06397 -1.8692,-0.379921 -0.80556,-0.805556 z m -310.697747,-6.7444 c -7.2218338,78.276866 -3.6109173,39.138437 0,0 z m 247.281077,0.03355 c 2.01667,-0.3055 5.31667,-0.3055 7.33333,0 2.01667,0.305499 0.36667,0.555453 -3.66666,0.555453 -4.03334,0 -5.68334,-0.249954 -3.66667,-0.555453 z m -151.79335,-18.044995 -2.53998,-3 3,2.539984 c 2.81926,2.386958 3.60698,3.460016 2.53998,3.460016 -0.25301,0 -1.60301,-1.35 -3,-3 z m -2.94672,-8.333333 c 0.0272,-2.2 0.326,-2.938581 0.66406,-1.641291 0.33806,1.29729 0.31582,3.09729 -0.0494,4 -0.36524,0.90271 -0.64183,-0.158709 -0.61466,-2.358709 z m 2.40674,-7.83674 c 0,-0.276875 1.05,-1.326874 2.33333,-2.333334 2.11474,-1.658494 2.1619,-1.611333 0.50341,0.503407 -1.74183,2.220998 -2.83674,2.927306 -2.83674,1.829927 z"
     id="path86" />
  <path
     style="fill:url(#radialGradient9149);stroke-width:1.33333337;stroke:url(#linearGradient9959);stroke-opacity:1;fill-opacity:1;fill-rule:evenodd;opacity:0.877"
     d="m 43.945434,117.34279 c -28.44236,26.72895 -14.22118,13.36447 0,0 z m 94.666656,0 c -91.553462,26.72895 -45.776728,13.36447 0,0 z m 73.99415,-7 c -140.882896,31.39561 -70.44145,15.69781 0,0 z m 134.00585,1.66666 c -230.22014,30.28451 -115.11007,15.14225 0,0 z M 171.44373,79.009456 c 0.0107,-3.666666 0.26896,-5.008417 0.57543,-2.981666 0.30648,2.026749 0.29828,5.026749 -0.0181,6.666666 -0.6336,-0.649299 -0.55745,-1.987402 -0.55733,-3.685 z m 133.33334,0 c 0.0107,-3.666666 0.26896,-5.008417 0.57542,-2.981666 0.30648,2.026749 0.29828,5.026749 -0.0181,6.666666 -0.63359,-0.649293 -0.55744,-1.987414 -0.55732,-3.685 z M 124.39572,24.50605 c 0,-0.276875 1.05,-1.326875 2.33333,-2.333334 2.11474,-1.658494 2.1619,-1.611334 0.50341,0.503407 -1.74183,2.220997 -2.83674,2.927305 -2.83674,1.829927 z m 121,-1.770904 c 1.65,-0.317804 4.35,-0.317804 6,0 1.65,0.317804 0.3,0.577825 -3,0.577825 -3.3,0 -4.65,-0.260021 -3,-0.577825 z M 129.98899,13.676123 c 0.0272,-2.2 0.32599,-2.938581 0.66405,-1.641291 0.33806,1.29729 0.31583,3.09729 -0.0494,4 -0.36523,0.90271 -0.64183,-0.158709 -0.61465,-2.358709 z"
     id="path84" />
  <path
     style="fill:url(#radialGradient9147);stroke-width:1.33333337;stroke:url(#linearGradient9957);stroke-opacity:1;fill-opacity:1;fill-rule:evenodd;opacity:0.877"
     d="m 180.14572,118.7653 c 0.96249,-0.38516 2.11249,-0.33779 2.55556,0.10527 0.44305,0.44305 -0.34445,0.75819 -1.75,0.70029 -1.55327,-0.064 -1.8692,-0.37992 -0.80556,-0.80555 z m 133.33333,0 c 0.9625,-0.38516 2.1125,-0.33779 2.55556,0.10527 0.44306,0.44305 -0.34445,0.75819 -1.75,0.70029 -1.55326,-0.064 -1.8692,-0.37992 -0.80556,-0.80555 z M 53.939586,115.67612 c 0,-1.83333 0.302631,-2.58333 0.672515,-1.66667 0.369882,0.91667 0.369882,2.41667 0,3.33334 -0.369884,0.91666 -0.672515,0.16666 -0.672515,-1.66667 z m 7.016389,-29.999997 c -0.0012,-14.666667 0.193626,-20.848583 0.432898,-13.737592 0.239272,7.110992 0.240237,19.110992 0.0021,26.666664 -0.238083,7.555675 -0.433852,1.737595 -0.435031,-12.929072 z M 106.30406,80.34279 c 0.78802,-63.853435 0.0988,70.57122 -4e-4,0 z m 50.63165,28.33333 -2.53999,-3 3,2.53998 c 2.81925,2.38696 3.60699,3.46002 2.53999,3.46002 -0.25302,0 -1.60302,-1.35 -3,-3 z m 133.33333,0 -2.53999,-3 3,2.53998 c 2.81926,2.38696 3.60699,3.46002 2.53999,3.46002 -0.25301,0 -1.60301,-1.35 -3,-3 z M 12.970732,79.009456 c 8.72e-4,-17.6 0.190596,-24.61559 0.421609,-15.590201 0.231012,9.025388 0.230299,23.425388 -0.0016,31.999998 -0.231884,8.574607 -0.420894,1.1902 -0.420022,-16.409797 z M 220.60624,46.34279 c 0,-1.833334 0.30264,-2.583334 0.67252,-1.666667 0.36988,0.916667 0.36988,2.416667 0,3.333333 -0.36988,0.916667 -0.67252,0.166667 -0.67252,-1.666666 z M 97.939586,43.676123 c 0,-1.833333 0.302631,-2.583333 0.672515,-1.666667 0.369882,0.916667 0.369882,2.416667 0,3.333334 -0.369884,0.916666 -0.672515,0.166666 -0.672515,-1.666667 z"
     id="path80"
     inkscape:connector-curvature="0"
     sodipodi:nodetypes="ccccccccccsccscscccccccccsccccsccscccsssssccs" />
  <path
     style="fill:url(#radialGradient9145);stroke-width:1.33333337;stroke:url(#linearGradient9955);stroke-opacity:1;fill-opacity:1;fill-rule:evenodd;opacity:0.877"
     d="m 178.06239,103.50605 c -117.853662,35.95344 -58.92683,17.97672 0,0 z m 132.82992,0.5034 c -1.6585,-2.11474 -1.61134,-2.1619 0.50341,-0.5034 2.221,1.74182 2.92731,2.83674 1.82992,2.83674 -0.27687,0 -1.32687,-1.05 -2.33333,-2.33334 z M 254.72356,62.009456 c -168.961109,63.617834 -84.48056,31.808917 0,0 z m -83.55591,24.88889 c 0.064,-1.553258 0.37992,-1.8692 0.80555,-0.805556 0.38516,0.9625 0.3378,2.1125 -0.1052,2.555556 -0.44307,0.443054 -0.75819,-0.344446 -0.70029,-1.75 z m 133.33334,0 c 0.064,-1.553258 0.37992,-1.8692 0.80554,-0.805556 0.38516,0.9625 0.3378,2.1125 -0.1052,2.555556 -0.44306,0.443054 -0.75818,-0.344446 -0.70029,-1.75 z m -133.33334,-16 c 0.064,-1.553258 0.37992,-1.8692 0.80555,-0.805556 0.38516,0.9625 0.3378,2.1125 -0.1052,2.555556 -0.44307,0.443054 -0.75819,-0.344446 -0.70029,-1.75 z m 133.33334,0 c 0.064,-1.553258 0.37992,-1.8692 0.80554,-0.805556 0.38516,0.9625 0.3378,2.1125 -0.1052,2.555556 -0.44306,0.443054 -0.75818,-0.344446 -0.70029,-1.75 z M 254.16657,32.34279 c 0.005,-5.133334 0.24691,-7.069951 0.53555,-4.303595 0.3614,7.932095 -0.52547,13.527869 -0.53558,4.303595 z"
     id="path78" />
  <path
     style="opacity:0.877;fill:url(#radialGradient9143);stroke-width:1.33333337;stroke:url(#linearGradient9953);stroke-opacity:1;fill-opacity:1;fill-rule:evenodd"
     d="m 9.7829852,142.60945 c 0,-8.43333 0.21649,-11.88333 0.4810898,-7.66666 0.2646,4.21666 0.2646,11.11666 0,15.33333 -0.2645998,4.21667 -0.4810898,0.76667 -0.4810898,-7.66667 z"
     id="path5255" />
  <path
     style="opacity:0.877;fill:url(#radialGradient9141);stroke-width:1.33333337;stroke:url(#linearGradient9951);stroke-opacity:1;fill-opacity:1;fill-rule:evenodd"
     d="m 9.8961952,61.942793 c 2.5e-4,-35.93333 0.1719998,-50.44169 0.3816698,-32.2408 0.20967,18.20089 0.20946,47.60089 -4.5e-4,65.33333 -0.20992,17.732437 -0.3814698,2.840802 -0.3812198,-33.09253 z"
     id="path5253" />
  <path
     style="opacity:0.877;fill:url(#radialGradient9139);stroke-width:1.33333337;stroke:url(#linearGradient9949);stroke-opacity:1;fill-opacity:1;fill-rule:evenodd"
     d="m 186.50603,123.929 c -12.1406,-2.05483 -21.74603,-9.19597 -25.9864,-19.31955 -1.22866,-2.93333 -2.53764,-10.164377 -2.90884,-16.068997 -1.71371,-27.25883 11.86233,-43.44058 36.73666,-43.78774 5.64555,-0.0788 13.71464,0.34992 17.93131,0.95269 l 7.66667,1.09594 v 11.23739 c 0,10.15189 -0.24475,11.23739 -2.53368,11.23739 -1.94511,0 -2.91286,-1.58058 -4.16595,-6.80403 -1.39183,-5.8018 -2.28891,-7.07841 -6.09016,-8.66667 -10.00624,-4.18087 -18.87291,-0.48719 -23.61989,9.8396 -4.17511,9.0827 -4.24955,33.10263 -0.12694,40.964427 4.25392,8.11223 9.62064,10.60606 22.245,10.3369 5.77599,-0.12315 11.65451,-0.58976 13.06338,-1.03692 2.04997,-0.65064 2.56157,-0.16165 2.56157,2.44841 0,3.57771 -2.87049,5.19678 -13.33333,7.52052 -6.84259,1.51971 -12.67826,1.53349 -21.4394,0.0506 z"
     id="path5251" />
  <path
     style="opacity:0.877;fill:url(#radialGradient9137);stroke-width:1.33333337;stroke:url(#linearGradient9947);stroke-opacity:1;fill-opacity:1;fill-rule:evenodd"
     d="m 254.77583,124.0122 c -6.43816,-1.62332 -11.25106,-5.61712 -13.08848,-10.86101 -1.01983,-2.91053 -1.61844,-14.239225 -1.66667,-31.541777 l -0.0752,-26.99999 h -4.66672 c -3.76649,0 -4.66667,-0.51068 -4.66667,-2.64747 0,-2.01098 1.39262,-2.99813 5.79254,-4.10605 5.28197,-1.33001 6.19278,-2.21215 10.33333,-10.00795 4.48911,-8.45204 4.60531,-8.5495 10.20747,-8.56062 l 5.66666,-0.0112 v 8.66667 8.66667 h 8.66667 8.66667 v 4 4 h -8.74151 -8.74151 l 0.40818,27.95529 c 0.48065,32.919077 0.47933,32.915637 12.45686,32.394287 6.5457,-0.28492 7.28464,-0.0413 7.28464,2.40137 0,5.09767 -17.4562,9.26906 -27.83626,6.65184 z"
     id="path5249" />
  <path
     style="opacity:0.877;fill:url(#radialGradient9135);stroke-width:1.33333337;stroke:url(#linearGradient9945);stroke-opacity:1;fill-opacity:1;fill-rule:evenodd"
     d="m 319.83936,123.929 c -12.1406,-2.05483 -21.74603,-9.19597 -25.9864,-19.31955 -1.22865,-2.93333 -2.53764,-10.164377 -2.90884,-16.068997 -0.95491,-15.18906 2.8375,-26.93881 10.68666,-34.42613 6.23722,-5.94969 15.03606,-9.20789 26.05001,-9.36161 5.64554,-0.0788 13.71464,0.34992 17.9313,0.95269 l 7.66667,1.09594 v 11.23739 c 0,10.15189 -0.24475,11.23739 -2.53368,11.23739 -1.94511,0 -2.91285,-1.58058 -4.16595,-6.80403 -1.39182,-5.8018 -2.2889,-7.07841 -6.09016,-8.66667 -10.00624,-4.18087 -18.8729,-0.48719 -23.61989,9.8396 -4.17511,9.0827 -4.24955,33.10263 -0.12693,40.964427 4.25392,8.11223 9.62064,10.60606 22.245,10.3369 5.77598,-0.12315 11.6545,-0.58976 13.06337,-1.03692 2.04997,-0.65064 2.56157,-0.16165 2.56157,2.44841 0,3.57771 -2.87049,5.19678 -13.33333,7.52052 -6.84259,1.51971 -12.67825,1.53349 -21.4394,0.0506 z"
     id="path5247" />
  <path
     style="opacity:0.877;fill:url(#radialGradient9133);stroke-width:1.33333337;stroke:url(#linearGradient9943);fill-opacity:1;fill-rule:evenodd;stroke-opacity:1"
     d="m 14.612086,121.40655 c 0,-1.61928 1.44617,-3.04037 4,-3.93064 l 4,-1.3944 V 84.645483 53.209463 l -4,-0.8 c -2.73777,-0.54756 -4,-1.58889 -4,-3.3 0,-2.29197 1.21276,-2.5 14.57394,-2.5 14.08919,0 14.58915,0.0998 15.03165,3 0.53502,3.50659 0.4711,3.51317 11.72775,-1.20715 15.28397,-6.40913 29.10091,-4.30312 34.31076,5.22972 2.00955,3.67701 2.41826,8.6596 2.78005,33.89143 l 0.42416,29.580667 3.90918,0.8586 c 2.668344,0.58607 3.909184,1.67142 3.909184,3.41933 0,2.40347 -1.14631,2.56073 -18.666674,2.56073 -17.71793,0 -18.66666,-0.13425 -18.66666,-2.64127 0,-1.70536 1.18112,-2.93771 3.33333,-3.47787 l 3.33333,-0.83662 V 91.997213 c 0,-14.85067 -0.59962,-26.70991 -1.47789,-29.2293 -1.93155,-5.54086 -7.90503,-8.67883 -14.35075,-7.5387 -10.36884,1.83406 -9.50469,-1.0746 -9.50469,31.99222 v 29.765597 l 3.33333,0.83662 c 2.15221,0.54016 3.33334,1.77251 3.33334,3.47787 0,2.50702 -0.94874,2.64127 -18.66667,2.64127 -17.45778,0 -18.66667,-0.16425 -18.66667,-2.53624 z"
     id="path5245" />
  <path
     style="opacity:0.877;fill:url(#radialGradient9131);stroke-width:1.33333337;stroke:url(#linearGradient9941);stroke-opacity:1;fill-opacity:1;fill-rule:evenodd"
     d="m 106.84969,121.69368 c 0.23908,-1.24142 2.37372,-2.75196 4.76443,-3.37145 l 4.3313,-1.12236 V 85.835313 54.470743 l -4,-1.39441 c -2.55384,-0.89027 -4,-2.31136 -4,-3.93064 0,-2.34573 1.15174,-2.53623 15.33334,-2.53623 h 15.33333 v 35.36666 35.366667 l 4,0.8 c 2.73778,0.54755 4,1.58889 4,3.3 0,2.33387 -1.3355,2.5 -20.09776,2.5 -18.13631,0 -20.05551,-0.21951 -19.66464,-2.24911 z"
     id="path5243" />
  <path
     style="opacity:0.877;fill:url(#radialGradient9129);stroke-width:1.33333337;stroke:url(#linearGradient9939);stroke-opacity:1;fill-opacity:1;fill-rule:evenodd"
     d="m 121.42552,30.136373 c -3.55657,-2.0318 -6.69434,-6.9443 -6.76619,-10.59313 -0.0825,-4.19074 3.69354,-9.8362202 7.6849,-11.4895002 7.8581,-3.2549298 16.26786,2.6010602 16.26786,11.3278402 0,8.65247 -9.9584,14.88411 -17.18657,10.75479 z"
     id="path76" />
</svg>
